<svg width="148" height="42" viewBox="0 0 148 42" fill="none" xmlns="http://www.w3.org/2000/svg">
<path d="M63.244 31H58.512V11.064H63.244V31ZM74.9329 18.736L75.6889 16.552H80.1689L75.0169 31H69.8089L64.6569 16.552H69.3609L70.1169 18.736C70.5089 20.1173 70.8916 21.4707 71.2649 22.796C71.6382 24.1027 71.9276 25.1293 72.1329 25.876C72.3382 26.604 72.4689 27.0707 72.5249 27.276C72.5809 27.0707 72.7116 26.604 72.9169 25.876C73.1222 25.1293 73.4116 24.1027 73.7849 22.796C74.1582 21.4707 74.5409 20.1173 74.9329 18.736ZM93.3346 29.264C91.9533 30.6453 90.1146 31.336 87.8186 31.336C85.5226 31.336 83.6839 30.6453 82.3026 29.264C80.9213 27.8827 80.2306 26.0533 80.2306 23.776C80.2306 21.48 80.9213 19.6413 82.3026 18.26C83.6653 16.8973 85.5039 16.216 87.8186 16.216C90.1333 16.216 91.9719 16.8973 93.3346 18.26C94.6973 19.6227 95.3786 21.4613 95.3786 23.776C95.3786 26.072 94.6973 27.9013 93.3346 29.264ZM87.8186 27.836C88.8266 27.836 89.6013 27.4907 90.1426 26.8C90.6839 26.1093 90.9546 25.1013 90.9546 23.776C90.9546 22.4507 90.6839 21.4427 90.1426 20.752C89.6013 20.0613 88.8266 19.716 87.8186 19.716C86.7919 19.716 86.0079 20.0613 85.4666 20.752C84.9253 21.4427 84.6546 22.4507 84.6546 23.776C84.6546 25.1013 84.9253 26.1093 85.4666 26.8C86.0079 27.4907 86.7919 27.836 87.8186 27.836ZM97.3128 11.064H105.489C108.774 11.064 111.294 11.9507 113.049 13.724C114.803 15.4787 115.681 17.9147 115.681 21.032C115.681 24.1493 114.803 26.5947 113.049 28.368C111.294 30.1227 108.774 31 105.489 31H97.3128V11.064ZM102.045 26.996H105.405C107.122 26.996 108.438 26.5013 109.353 25.512C110.286 24.504 110.753 23.0107 110.753 21.032C110.753 19.0533 110.286 17.5693 109.353 16.58C108.438 15.572 107.122 15.068 105.405 15.068H102.045V26.996ZM132.068 24.196V25.064H121.372C121.521 26.0533 121.885 26.8093 122.464 27.332C123.043 27.8547 123.78 28.116 124.676 28.116C126.095 28.116 127.065 27.5747 127.588 26.492H131.732C131.34 27.9853 130.509 29.1707 129.24 30.048C127.971 30.9067 126.449 31.336 124.676 31.336C122.436 31.336 120.625 30.6453 119.244 29.264C117.863 27.8827 117.172 26.0533 117.172 23.776C117.172 21.48 117.853 19.6507 119.216 18.288C120.56 16.9067 122.361 16.216 124.62 16.216C126.86 16.216 128.671 16.9347 130.052 18.372C131.396 19.828 132.068 21.7693 132.068 24.196ZM124.564 19.436C122.772 19.436 121.717 20.388 121.4 22.292H127.784C127.635 21.396 127.28 20.696 126.72 20.192C126.16 19.688 125.441 19.436 124.564 19.436ZM142.445 18.736L143.201 16.552H147.681L142.529 31H137.321L132.169 16.552H136.873L137.629 18.736C138.021 20.1173 138.403 21.4707 138.777 22.796C139.15 24.1027 139.439 25.1293 139.645 25.876C139.85 26.604 139.981 27.0707 140.037 27.276C140.093 27.0707 140.223 26.604 140.429 25.876C140.634 25.1293 140.923 24.1027 141.297 22.796C141.67 21.4707 142.053 20.1173 142.445 18.736Z" fill="white"/>
<path d="M42.9355 19.8217C41.0066 17.8245 39.054 15.8504 37.0781 13.8997C32.1587 9.04881 27.09 4.27581 21.7298 0C23.9255 0.0228438 26.0432 0.37625 28.0347 1.00916C32.7203 5.19359 37.234 9.60647 41.6912 14.0932C42.3537 15.9019 42.781 17.8235 42.9355 19.8203V19.8217ZM41.0704 30.4144C37.7164 26.9247 34.2831 23.5344 30.6738 20.3753C25.6939 16.0135 16.3051 7.19309 9.52856 10.4073C3.41181 13.3072 3.19009 24.5745 2.86356 32.2272C0.98196 28.9656 -0.0057929 25.2654 2.55577e-05 21.5C2.55577e-05 13.1674 4.74078 5.94072 11.6718 2.37306C14.1175 3.16991 16.4999 4.62384 18.4417 5.84934C27.2687 11.4125 34.9563 18.8972 42.3497 26.7715C42.0312 28.0347 41.6012 29.2521 41.0704 30.4144ZM35.0168 38.2216C34.57 37.8478 34.119 37.4791 33.6637 37.1157C30.2048 34.3557 25.4842 30.659 21.0405 31.6816C16.9797 32.6155 15.3107 37.4154 14.362 41.7866C12.6201 41.1736 10.9648 40.3381 9.43718 39.3007C9.92899 34.9442 10.6331 30.3311 12.6689 26.7178C15.7797 21.199 21.1171 22.5898 25.5864 25.1967C30.1014 27.8304 34.2092 31.3403 38.1007 35.1632C37.1779 36.2831 36.1447 37.3086 35.0168 38.2216Z" fill="#5D5DFF"/>
</svg>
